<svg width="512" height="512" viewBox="0 0 512 512" fill="none" xmlns="http://www.w3.org/2000/svg">
  <defs>
    <filter id="shadow" x="-10%" y="-10%" width="120%" height="120%">
      <feDropShadow dx="0" dy="16" stdDeviation="20" flood-color="#2563eb" flood-opacity="0.3"/>
    </filter>
    <linearGradient id="pinGradient" x1="128" y1="48" x2="384" y2="480" gradientUnits="userSpaceOnUse">
      <stop offset="0%" stop-color="#60a5fa" />
      <stop offset="50%" stop-color="#3b82f6" />
      <stop offset="100%" stop-color="#1d4ed8" />
    </linearGradient>
  </defs>

  <!-- Base Map Pin -->
  <path d="M256 48C172.053 48 104 116.053 104 200C104 314 256 464 256 464C256 464 408 314 408 200C408 116.053 339.947 48 256 48Z" fill="url(#pinGradient)" filter="url(#shadow)"/>

  <!-- Inner White Circle -->
  <circle cx="256" cy="196" r="80" fill="#ffffff" />
  
  <!-- Mortarboard Diamond -->
  <path d="M196 186L256 154L316 186L256 218Z" fill="#1e3a8a"/>
  
  <!-- Cap Base -->
  <path d="M210 196V226C210 236 256 248 256 248C256 248 302 236 302 226V196" fill="#2563eb"/>
  
  <!-- Tassel Cord -->
  <path d="M316 186V226" stroke="#f59e0b" stroke-width="5" stroke-linecap="round"/>
  
  <!-- Tassel End -->
  <circle cx="316" cy="232" r="5" fill="#d97706"/>
</svg>
